<svg viewBox="0 0 2000 1024">
<defs>
    <style>
        .cls-1 {
            fill: red;
        }
    </style>
</defs>

<path id="Fond_1" data-name="Fond 1" class="cls-1" d="M736,250c12.3-.316,24.727,10.2,33,15,5.617,3.259,13.247,2.465,21,6,7.731,3.525,15.612,10.718,24,14l10,2c2.755,1.807,3.938,6.316,7,8,8.915,4.9,30.324,6.981,33,17,0.8,1.021.355,0.274,1,2-7.15,6.116-9.07,15.436-14,24-8.1,14.064-19.525,27.158-30,39-5.707,6.451-8.191,15.627-14,22-2.774,3.043-7.273,4.921-10,8-2.319,2.619-2.082,5.832-4,9-3.116,5.146-9.808,8.747-14,13-4.308,4.371-7.4,9.933-12,14-13.81,12.2-31.535,21.566-43,36-55.357-9.252-113.012-19.8-166-33-7.7-1.92-12.931-.1-20-2-30.649-8.248-66-11.965-96-20-6.1-1.633-9.9-.36-16-2-15.994-4.3-34.152-7.763-50-12-8.9-2.381-19.758,1.434-24-6-0.752-1.073-.6-0.946-1-3h1v-1c17.446,0.245,41.341-16.465,50-26,16.2,0.008,31.16,5.628,42,8,8.044,1.76,18.139.5,24,2h16a231.743,231.743,0,0,0,62-8c14.627-4.077,23.908-5.543,36-11,5.2-2.346,10.118-1.49,15-4,11.369-5.845,23.944-14.337,35-20h4c5.262-2.167,9.431-7.344,14-10,4.489-2.609,9.252-2.8,13-6,1.775-1.513,3.066-4.668,5-6,3.6-2.479,7.791-3.164,11-6,6.7-5.919,11.7-13.663,18-20,4.927-4.957,11.351-8.8,16-14,3.9-4.358,5.887-9.922,10-14C727.622,260.417,735.3,258.458,736,250ZM204,487h4c3.942-5.949,10.042-9.113,15-14,7.044-6.942,13-15,20-22,5.324-5.324,11.771-9.588,17-15,13.122-.261,36.813,6.4,48,10,21.629,6.966,43.9,9.792,64,17l14,2c16.809,6.021,33.194,7.972,52,13,39.245,10.492,83.5,22.1,122,34l18,3c16.835,6.073,38.348,10.621,56,16,7.149,2.178,26.954,4.073,30,9-4.258,3.469-10.026,26.174-13,33-3.44,7.895-8.735,16.929-12,25-3.048,7.533-2.883,14.789-6,22-4.392,10.16-12.642,21.7-17,32-3.867,9.139-3.515,20.692-11,26-7.063,5.358-20.7.113-29,0H497c-15.9,0-26.992-.545-41-4-13.126-3.238-31.139.679-42-2H390a166.451,166.451,0,0,1-34-4c-7.846-1.934-18.935.766-24,2-8.331,2.029-12.188-2.477-16-4-5.022-2.007-24.217-.573-30-2H260c-3.336-.834-8.664-3.167-12-4H230c-2.651-.694-5.635-3.321-8-4-10.137-2.911-21.25,1.4-26-1-2.191-1.886-2.087-3.723-2-8,2.653-4.387-.154-11.32-1-15q-0.5-21-1-42c0.27-4.527,2.137-9.277,3-13V537C198.478,521.206,201.524,503.618,204,487Z"/>
</svg>
