<svg viewBox="0 0 2000 1024">
  <defs>
    <style>
      .cls-1 {
        fill: red;
      }
    </style>
  </defs>
  <path id="Fond_1" data-name="Fond 1" class="cls-1" d="M1262,513c0.13,11.99-.86,18.82-4,31-4.11,15.945,3.19,29.68,3,42,9.41,5.762,18.62,16.126,29,20h6c3.92,1.372,9.15,4.756,14,6,8.3,2.13,14-.145,22,2,2.65,0.71,5.63,3.311,8,4h20c13.51,3.338,35.42,2.342,50,6h22c2.16,0.532,13.87,1.133,16,2,1.47,0.6,3.65,4.5,5,5,0.46,0.171,12.52-2.99,19-3h108c2.64,0.676,5.65,3.361,8,4,5.89,1.6,8.66-3.011,14-2,3.2,0.606,16.17,3.2,20,2,2.2-.691,3.64-5.136,6-6,9.21-3.373,16.05,4.552,26,2,4.35-1.116,8.33-4.8,12-6h26c0.96-.386,3.04-3.628,4-4l14,1c2.03-.691,4.2-4.216,6-5,3.73-1.627,6.68.883,9,0,2.42-.923,1.91-3.169,6-4,2.28,2.4,3.93,2.1,7,4,8.15,5.035,24.51,21.986,30,30,8.77,12.787,15.24,31.154,20,47v14c0.64,2.05,2.97,5.767,4,8h-2c-4.25,2.529-12.3-.41-18,1-6.66,1.648-15.58,4.407-22,6h-14c-32.94,8.105-71.14,5.974-104,14h-22c-8.44,2.059-25.56,1.94-34,4h-24c-10.41,2.528-31.69,3.9-43,4h-55c-13.21,3.184-33.61,2-50,2h-18c-3.93.942-11.49,3.588-18,2-3.25-.792-8.43-3.313-14-2-18.4,4.341-55.61,4.5-74,0h-32c-6.07-1.5-15.21-2-24-2h-18c-5.3-1.309-16.7-2.7-22-4h-28c-7.84-1.941-19.3-1.125-28-4-4.12-1.361-10.76-4.67-16-6l-20-2c-27.96-7.146-60.94-8.794-90-16-11.228-2.784-47.633-3.565-51-6,2.956-3.874,1.53-9.108,4-14,1.47-2.912,6.273-5.961,8-9,7.537-13.264,15.938-27,26-38,5.353-5.852,12.38-10.382,18-16s10.15-12.647,16-18c2.88-2.638,7.05-3.391,10-6,5.61-4.958,10.76-11.738,17-16a298.6,298.6,0,0,0,33-26c5.68-5.152,12.86-8.353,18-14,5.2-5.71,12.02-12.542,16-19,0.33-1.667.67-3.333,1-5,1.67-1,3.33-2,5-3,2.96-3.8,6.52-8.2,9-12,6.59-10.1,8.92-22.354,16-32,7.49-6.4,11.78.569,18,3,3.94,1.541,6.03.522,10,2,24.23,9.022,50.17,20.02,80,23C1255.3,509.007,1255.15,512.539,1262,513Z"/>
</svg>
