<svg viewBox="0 0 2000 1024">
  <defs>
    <style>
      .cls-1 {
        fill: red;
      }
    </style>
  </defs>
  <path id="Fond_1" data-name="Fond 1" class="cls-1" d="M271,248c6.157,2.24,13.416,3.136,18,7l4,8c5.8,8.519,12.858,18.2,17,28,1.564,3.7,1.076,6.841,3,10a144.415,144.415,0,0,0,37,41l7,8c8.648,6.126,40.579,13.558,43,23-7.86,4.751-12.1,12.023-19,17-5.686,4.1-12.91,3.988-20,7-2.186.928-5.074,4.133-7,5-6.264,2.819-15.539-1.033-23,1-22.593,6.155-44.906,15.693-63,27-5.172,3.232-8.208,9.529-13,13-4.311,3.122-9.385,4.294-13,8-4.769,4.889-6.133,13.22-11,18-2.062,2.025-5.592,2.309-8,4-6.311,4.433-10.924,11.363-19,14v-2c-2.2-2.985-3.647-15.164-2-21,2.127-7.537,6.588-14.852,9-22q2-9.5,4-19c7.118-22.789,13.825-47.314,19-71q-0.5-6.5-1-13c4.68-14.541,9.821-34.941,15-49,2.4-6.508,4.315-12.854,6-18q0.5-5.5,1-11C257.836,255.518,266.576,252.218,271,248Z"/>
</svg>
