<svg viewBox="0 0 2000 1024">
  <defs>
    <style>
      .cls-1 {
        fill: red;
      }
    </style>
  </defs>
  <path id="Fond_1" data-name="Fond 1" class="cls-1" d="M608,678c-0.264-13.1,5.585-20.746,9-30,2.544-6.894.511-14.544,3-22,1.421-4.256,8.323-20.019,11-24,1.921-2.857,6.122-5.03,8-8,3.494-5.527,6.091-14.429,9-20,3.14-6.013,10.791-30.268,16-32,4.62-1.536,19.749,4.716,24,6,8.1,2.448,18.2-.47,28,2,9.424,2.375,22.612,5.469,32,8,11.251,3.033,23.368,3.361,34,6h12c31.989,7.977,66.15,13.992,107,14,14.559,0,29.087,2.42,39,0h18c3.029-.772,6.985-3.158,10-4h6l15-8c1.98-2.413,1.909-5.818,4-8,6.886-7.187,16.15-11.7,20-22,6.34-16.961,7.29-49.564,1-68-0.56-1.654-3.46-4.343-4-6-1.97-5.99.04-10.7-2-16-3.59-9.308-17.7-24.529-25-31-3.62-3.209-8.693-4.535-12-8-1.748-1.832-1.645-6.928-4-8l-5,1c-2.622-.828-4.83-4.832-7-6l-7-1c-3.516-1.842-4.97-7.685-8-10-4.049-3.094-9.677-3.252-14-6-4.6-2.926-8.255-7.876-14-10l-8-1c-5.232-2.153-5.472-6.893-13-8-2.679,2.808-3.744,2.244-4,8-3.689,6.815,1.059,24.1,3,32,2.058,8.375-.8,20.45-2,26q0.5,5,1,10c-4.617,15.679-26.454,39.29-41,45-9.269,3.639-16.8,2.287-28,5-8.11,1.965-33.08,4.679-44,2a224.424,224.424,0,0,0-50-6v-2c1.393-1.354,1.639-3.614,3-5,3.294-3.355,8.636-4.707,12-8,1.635-1.6,2.321-4.464,4-6,2.881-2.635,7.064-3.386,10-6,4.5-4,7.73-9.73,12-14,4.934-4.934,11.372-8.8,16-14,2.614-2.935,3.365-7.12,6-10,2.783-3.042,7.26-4.924,10-8,2.616-2.937,3.375-7.107,6-10,3.429-3.78,6.478-8.115,10-12,0.828-.913,3.193-1.078,4-2,2.9-3.309,3.168-8.627,6-12,9.625-11.464,18.525-24.259,27-37,4.382-6.588,6.923-16.154,13-21,4.319-3.13,12.833,1.689,19,4,15.313,5.739,34.23,12.062,50,17h6c23.458,8.225,36.81,32.034,56,45a225.676,225.676,0,0,0,48,24c7.37,2.688,15.04.911,22,4,8.31,3.687,24.31,13.884,31,20,6.17,5.642,11.78,14.459,18,20,5.8,5.164,32.07,19.73,34,25,0.8,1.18.77,1.681,1,4l-12,20c-1.41,6.566,2.63,9.325-3,15-3.96,4-10.24,5.8-14,10-3.43,3.841-4.96,8.792-8,13-3.66,5.068-9.6,8.6-14,13-2.29,2.293-3.62,5.82-6,8-8.69,7.951-21.89,13.81-30,22-1.89,1.907-1.14,6.019-3,8-2.18,2.324-9.38,2.259-12,4-5.48,3.647-10.16,9.609-15,14-2.89,2.625-7.06,3.384-10,6-5.9,5.251-10.4,12.4-16,18s-12.748,10.1-18,16c-3.431,3.852-4.958,8.787-8,13-2.721,3.768-7.614,6.829-10,11-1.737,3.037-1.713,5.705-4,8-2.719,2.729-7.1,3.414-10,6-5.413,4.824-7.349,13.263-12,18-1.323,1.348-3.677,1.624-5,3-17.521-1.078-39.546-3.9-56-8H872c-10.253-2.551-25.414-3.377-36-6H814c-7.082-.265-17.72-2.446-24-4H766c-7.343-1.8-20.471.338-30-2-14.9-3.654-37.836-2-56-2C653.83,680,633.635,678.069,608,678Z"/>
</svg>
