<svg viewBox="0 0 2000 1024">
  <defs>
    <style>
      .cls-1 {
        fill: red;
      }
    </style>
  </defs>
  <path id="Fond_1" data-name="Fond 1" class="cls-1" d="M891,359h4c1.073,1.465,17.546,14.407,19,15,5.524,2.251,10.316,1.144,15,4l3,5c2.683,2.041,6.516,1.831,9,4,1.964,1.715,3.977,6.585,7,7,1.129,0.155,1.924-2.077,4-1q0.5,1.5,1,3c1.575,1.614,4.148,1.6,6,3,1.78,1.351,2.336,4.552,4,6,4.542,3.951,11.886,4.808,17,8,5.22,3.258,25.77,25.422,28,31,2.51,6.285-.07,12.742,2,20,1.02,3.569,4.91,8.577,6,12,1.27,3.988,1.27,11.059,2,14,3.99,16.162-2.97,27.165-7,35-3.61,7.015-5.84,15.659-10,22-4.48,6.833-24.646,20.882-33,24l-13,2c-4.275,1.993-9.669,5.657-15,7-5.553,1.4-10.771-1.342-14-2l-9,1-32-1c-8.588,1.429-23.151-1.9-32-4H839c-19.257-5.759-42.188-6.481-61-12-4.858-1.425-9.239,1.45-12,2-1.463.291-14.958-1.219-18-2-25.285-6.491-53.762-12.922-78-20H660c-4.131-1.468-7.5-6.453-12-8-5.333-1.832-8.34.192-12-1-7.535-2.455-17.507-6.81-26-9l-12-1c-31.237-11.17-67.855-19.072-100-29-12.024-3.713-22.566-2.881-34-7-47.259-17.025-100.971-23.283-148-40-12.375-4.4-48.18-2.986-49-17,16.954-10.679,36.956-20.318,59-26,5.875-1.514,26.822,2.632,32,4,14.169,3.745,29.734,3.876,44,9,13.152,4.724,26.258,3.071,40,7,34.439,9.846,70.149,12.392,105,22,7.891,2.176,13.792.026,21,2,25.94,7.1,57.528,10.726,84,18l34,5c11.516,4.087,27.478,5.777,40,9h12c43.338,10.855,101.381,9.338,128-13,2.278-1.912,2.965-5.777,5-8,2.144-2.342,5.9-3.628,8-6,4.623-5.219,5.153-11.788,8-19l2-1c0.527-2.642-1.9-4.851-1-9,1.2-5.5,4.106-17.677,2-26-2.571-10.16-5.32-23.5-3-36A18.068,18.068,0,0,0,891,359Z"/>
</svg>
