<svg viewBox="0 0 2000 1024">
  <defs>
    <style>
      #Fond_7 {
        fill: red;
      }
    </style>
  </defs>
  <path id="Fond_7" data-name="Fond 1" class="cls" d="M727,237h-5c-5.081,7.055-32.861,38.052-41,39a172.2,172.2,0,0,1-13-31c-3.518-12.091,1.554-28.573,4-36,2.651-8.047,2.506-15.716,6-23,8.228-17.154,19.834-33.849,30-49,6-8.944,13.568-14.853,20-23,5.253-6.654,1.574-12.843,14-13,5.5,3.641,13.181,2.716,17,8h1v1c-8.031,1.134-24.232,18.01-25,26-0.566.713-1.442,0.042-1,2h1c4.32,9.451,24.918,7.214,35,11,10.891,4.09,23.588,11.935,34,16,5.769,2.252,10.246,1.716,16,4,4.025,1.6,7.395,6.172,11,8l11,2c1.754,0.864,3.776,4.223,6,5,10.024,3.5,23.683,2.249,25,14-22.106,13.339-39.751.178-63-6-5.415-1.439-13.763-6.4-22-4-13.729,4-27.238,15.369-38,23C741.425,217.08,727.414,223.067,727,237Zm170-53c1.975,1.08,5.211,2.5,7,4h-5C898.039,186.234,897.743,186.32,897,184Z"/>
</svg>
