<svg viewBox="0 0 2000 1024">
  <defs>
    <style>
      #Fond_8 {
        fill: red;
      }
    </style>
  </defs>
  <path id="Fond_8" data-name="Fond 1" class="cls" d="M1068,372v-6h4c0.92-3.868,11.47-27.9,14-29,11.53-7.456,23.25,8.392,29,11,3.66,1.661,4.8.1,9,0-0.33,2-.67,4-1,6,0.4,2.754,3.81,3.609,3,8-1.47,7.916-7.09,13.4-8,22,2.3,2.891,2.11,5.469,6,7,8.85,8.2,20.71-1.961,30-3-0.33-2.666-.67-5.334-1-8,2.28-1.225,2.25-1.638,6-2,5.78,6.424,18.09,5.741,23,13,5.35,6.886-7.53,25.289-8,37,4.95,6.1,7.55,11.276,18,12,3.23-2.268,8.08-2.422,11-5,5.54-4.894,14.23-16.045,15-25h4c0.33,2,.67,4,1,6,4.29,2.509,20.4,10.047,22,14,5.91,9.214-2.81,19.512,1,26,0.99,3.322,2.8,5.8,6,7,3.22,2.339,9.15,3.756,14,4,2.33-2.635,5.88-8.4,9-10,1.18-.8,1.68-0.773,4-1,5.27,5.273,9.31,5.176,16,9,6.83,3.9,22.94,23.643,23,35-1.62,2.047-2.4,5.81-1,8,1.69,5.316,5.6,6.568,9,10h9c5.51-7.294,13.42-14.87,23-18,2.65,2.131,5.16.222,9,2,1.48,0.687,3.43,4.2,5,5l8,1c5.35,2.375,12.28,6.072,19,8,6.68,1.918,12.73-.076,18,3,2.46,1.434,6.99,7.448,5,13-2.15,5.985-9.87,8.59-16,11-31.42,12.347-62.1,4.212-90-6-10.97-4.014-21.15-4.184-30-10-9.38-6.167-24.15-20.325-34-24-11.83-4.41-24.38-3.081-36-7-22.75-7.673-47.12-16.93-67-27-3.93-1.993-7.53-1.668-11-4-20.23-13.611-35.14-33.878-55-48a94.212,94.212,0,0,0-25-12l-14-2c-3.38-1.268-8.51-4.581-12-6h-4c-2.3-1.263-2.14-5.594-4-7h-5c-0.67-1-1.33-2-2-3-6.15-3.253-13.2-2.551-19-6-1.929-1.148-3.3-4.54-5-6-3.011-2.584-7.1-3.347-10-6-5.129-4.692-8.812-11.38-14-16-3.191-2.842-7.408-3.526-11-6-2.851-1.964-5.027-6.1-8-8-6.109-3.9-12.4-2.74-20-6-19.155-8.223-43.231-12.59-61-22-2.387.218-4.613,1.757-6,1-3.6-3.539-5.8-6.879-11-9h-4c-2.35-1.191-5.15-4.869-8-6-5.2-2.065-9.365-1.605-14-4-21.823-11.275-44.921-23.846-67-34-4.658-2.142-7.08,1.153-11,0-2.362-.695-7.041-3.762-10-5-0.711-1.612-2.721-3.306-2-6,0.428-1.6,23.691-19.68,27-20,1.35,1.624.64,1.121,3,2v-1c-1.938-1.667-1.668-1.439-2-5,6-2.259,13.061-4.363,17-6,3.69-1.533,5.8-6.665,11-8,17.948-4.61,38.4,10.379,50,13a10.925,10.925,0,0,0,2,3c-1.993,8.683-10.673,22.638-5,29v1c5.252-.853,13.027-0.275,19-2,11.635-3.359,21.886-11.155,34-14,0.123,0.142,33.963,16,34,16,2.177,0.309,3.452-1.38,5-2v2c-1.925,3.163.377,6.977,0,10-0.973,7.8-6.536,14.253-7,23,2.145,1.5,2.972,3.447,5,5,4.071,3.273,11.391,1.558,17,1,4.139-6.13,9.627-13.267,13-20,2.554-5.1,2.17-10.43,6-14,1.733-1.616,3.9-1.694,7-2,4.849,5.776,10.186,4.131,18,7,3.563,1.308,5.467,5.549,8,8-0.913,13.261-6.311,24.165-5,37a95.723,95.723,0,0,1,10,9h8c3.03-4.641,8.26-5.239,12-9,2.52-2.532,2.75-9.407,6-11h4a238.632,238.632,0,0,0,16,18c0.54,14.86-15.71,55.958,6,57C1059.04,369.6,1061.53,371.2,1068,372ZM746,243c-0.02,2.707-1.327,1.61,2,3v-3h-2Zm105,12c1.72,0.881,1.278.889,3,0h-3Zm213,112h2v1C1064.25,367.369,1065.03,367.807,1064,367Zm180,144a16.965,16.965,0,0,1,6,1v1h-2C1247.14,512.351,1244.86,511.662,1244,511Z"/>
</svg>
