<svg height="1024" viewBox="0 0 2000 1024">
  <defs>
    <style>
      #Fond_9 {
        fill: red;
      }
    </style>
  </defs>
  <path id="Fond_9" data-name="Fond 1" class="cls" d="M1266,518c9.46,1.21,17.93,7.654,26,11,19.45,8.062,39.42,12.873,61,18,11.02,2.619,43.43.355,50-3,7.83-4,17-12.985,27-14,4.72,2.85,11.01,2.806,16,5,23.83,10.475,50.49,18.45,77,27l25,4c20.2,6.168,43.95,8.148,65,15,15.16,4.934,33.96,9.15,50,14l18,3a265.884,265.884,0,0,0,33,10,2.826,2.826,0,0,1-1,1c-6.29,4.646-26.65,2.863-36,5-27.34,6.244-51.96,7.883-85,9-19.41.656-47.83,4.2-67,0-8.41-1.843-19.83.572-27-1-8.73-1.913-20.51.642-28-1h-53c-9.55-2.114-21.16.415-32-2-15.29-3.406-31.67-4.618-46-8l-17-1c-22.32-5.458-51.19-12.883-61-31-2.31-4.276-.94-14.791,0-19q0.495-12,1-24C1263.26,530.49,1264.74,523.287,1266,518Z"/>
</svg>
